<?xml version="1.0" encoding="utf-8"?>
<!-- Generator: Adobe Illustrator 26.2.1, SVG Export Plug-In . SVG Version: 6.00 Build 0)  -->
<svg version="1.1" id="Ebene_1" xmlns="http://www.w3.org/2000/svg" xmlns:xlink="http://www.w3.org/1999/xlink" x="0px" y="0px"
	 viewBox="0 0 35 35" style="enable-background:new 0 0 35 35;" xml:space="preserve">
<style type="text/css">
	.st0{fill:#005B94;}
</style>
<path class="st0" d="M34.24,26.28c0-0.01,0-0.01,0-0.02c-0.02,0-21.28,0-25.3,0c-0.56,0-0.92-0.61-0.65-1.1
	c0.11-0.2,5.83-10.15,8.55-14.96c0.34-0.61,0.72-0.82,1.41-0.8c0.68,0.02,3.66,0.03,4.67,0.03c1.22,0,2.45,0,3.19-0.01
	c0.28,0,0.45-0.3,0.31-0.55c-0.42-0.74-0.8-1.4-1.18-2.06c-0.63-1.08-1.23-2.18-1.9-3.23c-0.17-0.27-0.58-0.54-0.89-0.55
	c-1.04-0.02-8.32,0.01-8.36,0.02c-0.28,0.05-0.6,0.24-0.73,0.48C9.1,10.9,4.85,18.28,0.62,25.68c-0.15,0.26-0.16,0.7-0.02,0.96
	c0.17,0.31,3.16,5.51,3.16,5.51c0,0,0,0,0,0.01c0.15,0.24,0.5,0.44,0.78,0.44c8.58,0.02,26.19-0.03,26.29-0.04
	c0.17,0,0.38-0.12,0.46-0.26c0.79-1.27,2.48-4.28,3.15-5.51C34.57,26.57,34.45,26.34,34.24,26.28z"/>
<path class="st0" d="M21.62,14.5h6.77c0.26,0,0.5,0.13,0.64,0.36l2.79,4.49c0.31,0.5-0.05,1.15-0.64,1.15H18.85
	c-0.59,0-0.95-0.65-0.64-1.15l2.77-4.49C21.11,14.64,21.35,14.5,21.62,14.5z"/>
</svg>
